<?xml version="1.0" encoding="UTF-8" standalone="no"?>
<!-- Created with Inkscape (http://www.inkscape.org/) -->

<svg
   xmlns:dc="http://purl.org/dc/elements/1.1/"
   xmlns:cc="http://creativecommons.org/ns#"
   xmlns:rdf="http://www.w3.org/1999/02/22-rdf-syntax-ns#"
   xmlns:svg="http://www.w3.org/2000/svg"
   xmlns="http://www.w3.org/2000/svg"
   xmlns:sodipodi="http://sodipodi.sourceforge.net/DTD/sodipodi-0.dtd"
   xmlns:inkscape="http://www.inkscape.org/namespaces/inkscape"
   version="1.1"
   id="svg885"
   width="1154.9318"
   height="533.90057"
   viewBox="0 0 1154.9318 533.90058"
   sodipodi:docname="logo_ink.svg"
   inkscape:version="0.92.3 (2405546, 2018-03-11)">
  <metadata
     id="metadata891">
    <rdf:RDF>
      <cc:Work
         rdf:about="">
        <dc:format>image/svg+xml</dc:format>
        <dc:type
           rdf:resource="http://purl.org/dc/dcmitype/StillImage" />
        <dc:title></dc:title>
      </cc:Work>
    </rdf:RDF>
  </metadata>
  <defs
     id="defs889" />
  <sodipodi:namedview
     pagecolor="#ffffff"
     bordercolor="#666666"
     borderopacity="1"
     objecttolerance="10"
     gridtolerance="10"
     guidetolerance="10"
     inkscape:pageopacity="0"
     inkscape:pageshadow="2"
     inkscape:window-width="1366"
     inkscape:window-height="714"
     id="namedview887"
     showgrid="false"
     fit-margin-top="0"
     fit-margin-left="0"
     fit-margin-right="0"
     fit-margin-bottom="0"
     inkscape:zoom="0.56788102"
     inkscape:cx="431.95771"
     inkscape:cy="199.24539"
     inkscape:window-x="0"
     inkscape:window-y="0"
     inkscape:window-maximized="1"
     inkscape:current-layer="g911" />
  <g
     id="g911"
     transform="translate(-292.61066,-96.188214)">
    <path
       style="fill:#033593;stroke-width:1.06666672"
       d="m 548.07733,629.79769 c -18.686,-2.54519 -31.33831,-5.80497 -44.91109,-11.57109 -10.47014,-4.44803 -57.25552,-26.34526 -70.8586,-33.16439 -29.4504,-14.76324 -52.90542,-37.91498 -67.05792,-66.19082 -6.72875,-13.44361 -72.63906,-178.69653 -72.63906,-182.12348 0,-4.60154 8.17015,-19.42851 14.00884,-25.42287 3.31148,-3.39978 8.04693,-6.64873 13.38706,-9.18475 7.21802,-3.42782 9.48641,-3.9776 17.93611,-4.34717 8.25481,-0.36103 10.79555,-0.0327 17.32899,2.23942 12.9704,4.51065 16.04718,7.55105 45.81681,45.27502 15.06192,19.08641 28.85611,35.62421 30.65375,36.75067 3.63146,2.27559 8.79879,2.04406 12.79324,-0.5732 1.61407,-1.05758 20.77715,-40.81393 60.3073,-125.11543 31.86781,-67.96089 59.8347,-127.35871 62.14864,-131.99513 15.53506,-31.127382 50.86703,-37.64092 74.16948,-13.67333 6.49465,6.68003 6.7509,6.82541 9.06667,5.14405 10.387,-7.5415 16.71499,-10.18085 26.33998,-10.98619 7.62447,-0.63796 17.33093,1.31561 24.36398,4.9036 13.34518,6.8082 23.62408,23.36073 23.66649,38.11113 0.007,2.4215 0.61266,4.88323 1.346,5.47053 0.73333,0.58731 5.17984,1.28013 9.88113,1.53962 6.9185,0.38186 9.91166,1.14322 15.70294,3.99426 18.55501,9.1346 28.78185,30.27746 24.21887,50.06983 -0.59303,2.57234 -3.96467,10.91372 -7.49253,18.5364 -3.52787,7.62267 -6.26508,14.63803 -6.0827,15.58969 0.24979,1.30338 2.11304,1.9067 7.55202,2.44537 8.39561,0.83149 18.54193,5.17885 24.72631,10.59439 12.8402,11.24393 18.27355,30.54944 13.17814,46.82385 -0.93864,2.99796 -77.22041,166.87171 -81.14658,174.3247 -0.93816,1.78089 -1.40592,1.20214 -3.47341,-4.2975 -3.02158,-8.03759 -7.7925,-17.49799 -8.8155,-17.48052 -0.43011,0.007 -6.50818,12.36735 -13.50681,27.46667 -26.20375,56.53371 -33.03487,69.46935 -41.85317,79.25441 l -4.08871,4.53698 8.0999,-0.60751 c 4.45495,-0.33412 11.53316,-1.80147 15.72937,-3.26076 4.19621,-1.4593 7.30767,-2.102 6.91434,-1.42821 -4.50017,7.70911 -11.18682,15.96159 -20.53377,25.34217 -21.24594,21.32241 -47.35975,35.20053 -77.07267,40.96007 -8.58936,1.66496 -33.28971,2.93679 -39.80384,2.04952 z m 27.22798,-21.83352 c 26.82992,-3.28543 52.49408,-15.2041 72.37782,-33.61296 3.59015,-3.32383 6.52753,-6.47163 6.52753,-6.9951 0,-0.52348 -1.8,-0.96011 -4,-0.97029 -19.86129,-0.0919 -42.89274,-13.46873 -55.28543,-32.11 -14.7226,-22.14595 -15.2819,-52.98752 -1.38356,-76.29441 17.8887,-29.99855 58.8923,-42.82513 90.14685,-28.19936 9.40457,4.40093 15.6213,8.89124 23.39582,16.89866 l 6.68619,6.88648 1.56052,-3.04809 c 0.85829,-1.67646 17.56121,-37.1281 37.11761,-78.78143 34.8921,-74.31699 35.55631,-75.85692 35.516,-82.34133 -0.0337,-5.41545 -0.61132,-7.53296 -3.20084,-11.73333 -8.35503,-13.55241 -28.06519,-14.81188 -37.82578,-2.41704 -1.59892,2.03043 -14.0075,27.4517 -27.57464,56.4917 -13.56714,29.04 -25.66987,53.64 -26.89497,54.66666 -1.364,1.14309 -4.00553,1.86667 -6.81445,1.86667 -3.85209,0 -5.04774,-0.54755 -7.4627,-3.41756 -2.38598,-2.83559 -2.7851,-4.15249 -2.34374,-7.73333 0.32252,-2.61663 15.5309,-36.23226 38.62874,-85.38244 20.95322,-44.58667 38.76524,-82.92702 39.58225,-85.20078 2.79912,-7.79005 1.28321,-15.97043 -4.18993,-22.61029 -8.75668,-10.62337 -27.37744,-10.52375 -35.54936,0.19019 -1.52172,1.99508 -17.11045,34.22593 -34.64164,71.62414 -20.58569,43.91415 -32.83902,68.84675 -34.59707,70.39674 -5.73261,5.05416 -15.31255,1.69426 -16.8018,-5.89276 -0.77939,-3.97063 -0.62017,-4.33254 39.27457,-89.2688 39.3056,-83.68196 38.35478,-81.03973 33.05804,-91.86589 -7.14676,-14.60744 -25.36717,-17.5018 -36.69248,-5.82868 -4.10099,4.22692 -9.45942,15.0144 -41.35557,83.25613 -23.77225,50.86067 -37.59736,79.24304 -39.35785,80.8 -3.72951,3.29833 -9.00201,3.15373 -13.1796,-0.36149 -6.3439,-5.33803 -6.62972,-4.54338 28.87422,-80.27994 34.6696,-73.95677 34.91334,-74.6067 31.41528,-83.76627 -6.06723,-15.88681 -27.40725,-20.28244 -38.65788,-7.96278 -3.17688,3.47874 -3.82776,4.83542 -68.1371,142.02425 -43.92108,93.69525 -58.37085,123.55436 -61.52715,127.1401 -2.26879,2.57749 -6.86801,6.0333 -10.22048,7.67957 -5.19634,2.55173 -7.35406,2.98311 -14.62874,2.92467 -9.64352,-0.0774 -15.68779,-2.33978 -22.01011,-8.23814 -2.02012,-1.88466 -15.29854,-18.15523 -29.50762,-36.15685 -14.20906,-18.00161 -27.53739,-34.13371 -29.61848,-35.84913 -6.37955,-5.25857 -15.34928,-6.86401 -24.46379,-4.37865 -4.98571,1.35951 -14.73378,10.69273 -15.86168,15.18664 -0.57282,2.28226 6.00919,19.63264 31.76469,83.73287 17.86798,44.46973 33.7387,83.68389 35.26828,87.14253 9.61329,21.73737 31.66981,45.18151 53.36205,56.71917 10.2575,5.45576 69.78281,33.42426 78.78525,37.01795 19.36474,7.73024 40.29762,10.51886 60.44273,8.052 z m -26.69465,-47.4852 c -3.81333,-0.81901 -11.01333,-3.49298 -16,-5.94216 -11.73608,-5.76412 -25.32627,-18.96457 -31.15938,-30.26581 -7.94245,-15.38795 -7.61957,-11.49602 -8.03076,-96.8 l -0.36892,-76.53333 h 18.17953 18.17953 v 36.26666 36.26667 h 17.6 17.6 v 15.46667 15.46666 H 546.93478 529.2589 l 0.34255,22.66667 c 0.31713,20.98439 0.52445,23.0625 2.79357,28 4.86363,10.58301 16.21469,19.20208 26.96546,20.47535 l 5.25018,0.6218 v 17.98476 17.98476 l -4.53333,-0.0848 c -2.49333,-0.0466 -7.65333,-0.7549 -11.46667,-1.5739 z m 120.63373,-33.75426 c 6.62702,-3.05125 13.99579,-9.99946 17.25017,-16.26564 1.65569,-3.18798 2.36621,-6.91862 2.70902,-14.22389 0.44221,-9.42353 0.30111,-10.23474 -2.91723,-16.77209 -3.75067,-7.61872 -9.34226,-12.89566 -17.76066,-16.76127 -7.29082,-3.34785 -21.19406,-3.41689 -28.31225,-0.14058 -10.75778,4.95149 -19.20982,16.59126 -20.69832,28.5048 -1.51054,12.08994 4.50161,25.19824 14.81625,32.30391 10.61734,7.31422 23.60329,8.56202 34.91302,3.35476 z m 160.43294,37.96475 c -4.10666,-0.84751 -11.54666,-3.51573 -16.53333,-5.92937 -7.3582,-3.56151 -10.79292,-6.12573 -18.22772,-13.60808 -14.62793,-14.72147 -20.54027,-29.17524 -20.54027,-50.21434 0,-21.00201 5.92531,-35.43802 20.61038,-50.21373 13.45121,-13.53424 26.40971,-19.42169 45.92692,-20.86602 10.5632,-0.7817 23.27699,1.35681 32.61309,5.48569 6.53013,2.88792 18.55093,10.97779 18.55093,12.48456 0,0.53978 -4.60635,7.19708 -10.23634,14.79402 l -10.23634,13.81261 -4.96366,-3.64135 c -14.74606,-10.81771 -34.8081,-8.92009 -47.34028,4.47782 -16.23848,17.36025 -10.23991,45.86562 11.78924,56.02273 3.93862,1.816 7.0061,2.29908 14.58738,2.2973 10.65896,-0.002 15.97459,-1.95188 22.66875,-8.31321 2.0975,-1.99321 3.82779,-2.89651 4.37701,-2.28501 6.59928,7.34752 21.49573,27.3351 20.98652,28.15903 -1.33618,2.16197 -14.30962,10.78204 -20.04417,13.31813 -12.73087,5.6302 -29.40269,7.22931 -43.98811,4.21922 z m 138.66667,0 c -4.10666,-0.84751 -11.54666,-3.51573 -16.53333,-5.92937 -7.3582,-3.56151 -10.79292,-6.12573 -18.22772,-13.60808 -14.62793,-14.72147 -20.54027,-29.17524 -20.54027,-50.21434 0,-21.00201 5.92531,-35.43802 20.61038,-50.21373 13.45121,-13.53424 26.40971,-19.42169 45.92692,-20.86602 10.5632,-0.7817 23.27702,1.35681 32.61312,5.48569 6.5301,2.88792 18.5509,10.97779 18.5509,12.48456 0,0.53978 -4.6064,7.19708 -10.2363,14.79402 l -10.2364,13.81261 -4.9636,-3.64135 c -14.7461,-10.81771 -34.80815,-8.92009 -47.34032,4.47782 -16.23848,17.36025 -10.23991,45.86562 11.78924,56.02273 3.93861,1.816 7.0061,2.29908 14.58738,2.2973 10.65896,-0.002 15.9746,-1.95188 22.6687,-8.31321 2.0976,-1.99321 3.8278,-2.89651 4.3771,-2.28501 6.5992,7.34752 21.4957,27.3351 20.9865,28.15903 -1.3362,2.16197 -14.3096,10.78204 -20.0442,13.31813 -12.73086,5.6302 -29.40268,7.22931 -43.9881,4.21922 z m 138.6667,0 c -4.1067,-0.84751 -11.5467,-3.51573 -16.5334,-5.92937 -7.3581,-3.56151 -10.7929,-6.12573 -18.2277,-13.60808 -14.6279,-14.72147 -20.5403,-29.17524 -20.5403,-50.21434 0,-21.01978 5.9207,-35.42976 20.6504,-50.25979 7.4766,-7.52749 10.7664,-9.97179 18.1576,-13.49085 12.4081,-5.9077 18.5049,-7.19738 33.56,-7.09931 11.0393,0.0719 13.9739,0.48612 21.3334,3.01112 24.5867,8.43555 41.7798,27.5867 46.8641,52.20115 1.7032,8.24568 2.152,18.52739 0.9969,22.83768 l -0.6432,2.4 h -51.6089 c -40.5814,0 -51.6068,0.28489 -51.5989,1.33333 0.019,2.61814 6.2933,12.22746 10.2525,15.70366 6.981,6.12939 12.4848,8.01948 23.3375,8.01446 8.3154,-0.004 10.3137,-0.38151 14.9333,-2.82235 2.9333,-1.54987 6.497,-4.06544 7.9193,-5.59018 1.4223,-1.52475 2.9734,-2.77226 3.4469,-2.77226 0.4735,0 5.6725,6.36 11.5533,14.13334 l 10.6923,14.13333 -4.5393,4.0082 c -14.254,12.58661 -38.957,18.35426 -60.0058,14.01026 z m 46.4,-87.73495 c 0,-2.22941 -9.2973,-11.17126 -14.2685,-13.72297 -7.7632,-3.98488 -21.0984,-4.64119 -29.5494,-1.45433 -6.65,2.5076 -13.3343,7.76476 -16.2424,12.77436 l -1.927,3.31943 h 30.9937 c 17.0465,0 30.9936,-0.41242 30.9936,-0.91649 z m 97.1872,85.66887 c -13.2675,-2.87835 -27.0099,-8.61206 -34.9885,-14.59821 l -3.4013,-2.5519 9.0574,-11.66781 c 4.9817,-6.41729 9.4624,-12.07404 9.9574,-12.57058 0.495,-0.49653 3.4698,0.83546 6.6106,2.95998 14.009,9.47604 33.593,10.75775 41.6265,2.7243 4.9943,-4.9943 3.5048,-12.132 -3.0735,-14.7289 -1.6367,-0.64611 -8.7358,-2.44262 -15.7758,-3.99225 -25.8075,-5.68067 -36.9521,-13.64774 -41.6378,-29.76573 -4.1543,-14.29046 -0.1713,-29.95413 10.181,-40.03756 16.7474,-16.31258 44.9331,-19.20117 71.3584,-7.31311 6.9308,3.11801 16.464,10.06528 15.8828,11.57451 -0.1747,0.45386 -5.4686,5.47225 -11.7641,11.15199 l -11.4461,10.32679 -4.5539,-3.0961 c -5.9154,-4.02197 -10.6103,-5.5678 -16.91,-5.5678 -16.505,0 -22.1324,13.53328 -7.9103,19.02336 1.76,0.67939 9.1655,2.44106 16.4567,3.91481 7.2913,1.47373 15.7489,3.82042 18.7947,5.21485 12.1688,5.57104 18.7607,15.04237 20.8688,29.98416 1.0199,7.22945 0.9339,9.59866 -0.5623,15.46667 -4.2619,16.71713 -18.8754,29.42089 -38.6675,33.61441 -9.0159,1.91028 -21.1163,1.8838 -30.1032,-0.0659 z m 126.9333,0 c -13.2675,-2.87835 -27.0099,-8.61206 -34.9885,-14.59821 l -3.4013,-2.5519 9.0574,-11.66781 c 4.9817,-6.41729 9.4624,-12.07404 9.9575,-12.57058 0.4949,-0.49653 3.4697,0.83546 6.6105,2.95998 14.009,9.47604 33.593,10.75775 41.6265,2.7243 4.9943,-4.9943 3.5048,-12.132 -3.0735,-14.7289 -1.6367,-0.64611 -8.7358,-2.44262 -15.7758,-3.99225 -25.8075,-5.68067 -36.9521,-13.64774 -41.6378,-29.76573 -4.1543,-14.29046 -0.1713,-29.95413 10.1811,-40.03756 16.7474,-16.31258 44.9331,-19.20117 71.3584,-7.31311 6.9307,3.11801 16.464,10.06528 15.8827,11.57451 -0.1747,0.45386 -5.4685,5.47225 -11.764,11.15199 l -11.4462,10.32679 -4.5538,-3.0961 c -5.9154,-4.02197 -10.6104,-5.5678 -16.9101,-5.5678 -16.505,0 -22.1324,13.53328 -7.9103,19.02336 1.76,0.67939 9.1656,2.44106 16.4568,3.91481 7.2913,1.47373 15.7489,3.82042 18.7946,5.21485 12.1689,5.57104 18.7608,15.04237 20.8688,29.98416 1.02,7.22945 0.9339,9.59866 -0.5622,15.46667 -4.262,16.71713 -18.8754,29.42089 -38.6675,33.61441 -9.0159,1.91028 -21.1164,1.8838 -30.1033,-0.0659 z M 712.98822,552.00433 c -1.95913,-5.57333 -3.88813,-10.13333 -4.28666,-10.13333 -0.39853,0 -2.62202,1.96675 -4.94108,4.37057 -2.31906,2.40381 -6.9447,6.24011 -10.27918,8.52511 l -6.06269,4.15454 10.42692,-21.05844 c 5.73481,-11.58215 14.21097,-29.25148 18.83592,-39.2652 l 8.409,-18.20675 14.68482,40.60675 c 8.07665,22.33372 14.68871,40.72675 14.69344,40.87342 0.004,0.14667 -8.52497,0.26667 -18.9549,0.26667 h -18.96352 z"
       id="path915"
       inkscape:connector-curvature="0" />
    <path
       style="fill:#0f0f0f;stroke:#000000;stroke-width:2.26771665;stroke-linecap:round;stroke-linejoin:round;stroke-miterlimit:4;stroke-dasharray:none;stroke-opacity:1"
       d="m 546.68085,628.16765 c -11.53388,-1.08343 -29.33682,-5.57365 -40.73686,-10.27458 -12.73357,-5.25083 -70.35234,-32.32867 -80.06978,-37.62867 -25.06538,-13.67093 -48.17214,-38.19509 -60.52688,-64.23967 -2.30126,-4.85122 -19.44623,-46.92399 -38.09992,-93.49505 l -33.91579,-84.67466 1.98586,-5.84232 c 4.69444,-13.81081 17.05534,-26.52653 29.86728,-30.72463 8.82769,-2.89258 23.35473,-2.69365 31.4259,0.43034 10.75633,4.1633 15.21743,8.73677 43.34888,44.44085 14.78227,18.76146 28.42704,35.19174 30.32172,36.51174 6.09561,4.24673 14.63853,2.44047 18.34113,-3.87791 1.33721,-2.2819 64.0364,-135.64848 109.1268,-232.12209 15.4158,-32.98301 19.4486,-38.54872 32.36697,-44.66994 6.55631,-3.10663 7.81508,-3.32885 18.76117,-3.31204 10.51672,0.01615 12.38187,0.319779 17.98798,2.92829 4.02217,1.8715 8.68289,5.38679 13.05777,9.84865 3.74172,3.8161 7.34282,6.93837 8.00244,6.93837 0.65963,0 3.42364,-1.62747 6.14223,-3.61661 17.24831,-12.6202 40.03947,-11.37752 55.4343,3.02255 8.53698,7.98534 13.25839,19.09392 14.30663,33.66073 l 0.26865,3.73333 9.74192,0.68598 c 7.74778,0.54557 11.13211,1.3525 16.53334,3.94211 17.48369,8.38253 27.70609,27.7254 24.3786,46.12926 -0.73009,4.03801 -4.04142,12.92135 -8.07885,21.67324 -3.76292,8.15681 -6.84167,15.46767 -6.84167,16.24633 0,1.56407 1.94782,2.10532 10.66666,2.96404 13.37487,1.31731 27.91869,12.08596 33.97904,25.15904 3.25058,7.012 4.46297,22.64835 2.28584,29.48092 -1.04658,3.28455 -81.8788,177.6556 -81.8788,177.6556 0,0 -1.06626,-2.82136 -1.99426,-5.31447 -0.65513,-1.76 -2.18405,-6.52323 -4.25367,-10.96543 l -3.76295,-8.07671 37.1374,-78.85662 37.13739,-78.85662 -0.0299,-7.46667 c -0.0422,-10.55385 -4.76917,-18.03259 -14.2387,-22.52779 -9.43423,-4.47843 -23.16507,-0.88518 -29.16956,7.63347 -1.75145,2.4848 -14.17682,27.97253 -27.61193,56.6394 -13.43512,28.66688 -25.43447,52.96159 -26.66521,53.98826 -6.91599,5.76918 -17.01715,-1.97584 -13.97151,-10.7126 0.57844,-1.6593 18.46535,-40.1358 39.74868,-85.50333 41.32924,-88.09732 41.15459,-87.65079 38.28779,-97.89 -3.15711,-11.27608 -16.53092,-19.06496 -28.13916,-16.38818 -6.93272,1.59864 -12.86313,5.73955 -16.06767,11.21925 -1.3964,2.38784 -16.48532,34.10152 -33.53092,70.47486 -20.06624,42.81904 -31.95363,66.97941 -33.71978,68.53333 -5.74393,5.05372 -14.34215,1.15791 -14.34215,-6.49835 0,-2.58629 10.86415,-26.80522 36.98481,-82.44849 39.80182,-84.78737 39.86295,-84.9457 36.60649,-94.81288 -1.73617,-5.26062 -8.01096,-12.09688 -13.32463,-14.51691 -7.95647,-3.62365 -18.6369,-2.1183 -25.58082,3.60547 -4.77468,3.93569 -3.47049,1.33196 -45.01562,89.87116 -18.99437,40.48 -35.36226,74.42833 -36.3731,75.44074 -1.01083,1.01241 -3.30883,2.13493 -5.10669,2.4945 -4.69714,0.93944 -10.05711,-3.65187 -10.05711,-8.61484 0,-2.4372 10.13476,-25.153 32.19981,-72.17184 35.35388,-75.33631 35.31509,-75.23019 31.31698,-85.69911 -2.16175,-5.66045 -9.83221,-12.82153 -15.38594,-14.3642 -10.08803,-2.80216 -21.53453,1.02627 -27.05263,9.04808 -1.61424,2.34667 -30.27808,62.54684 -63.69742,133.77816 -64.45621,137.38456 -63.18756,134.94803 -72.86597,139.94335 -10.01671,5.16991 -23.21175,4.57565 -32.31706,-1.45546 -3.37009,-2.23225 -12.43543,-12.87683 -30.5345,-35.85377 -30.32609,-38.49925 -30.77816,-39.00999 -37.62426,-42.50752 -6.2175,-3.17638 -15.87481,-3.66021 -21.98326,-1.10136 -7.46393,3.12666 -15.92242,12.91904 -15.92242,18.43334 0,2.38211 64.30191,162.3157 69.30321,172.37297 10.76327,21.64416 29.43943,41.39891 50.03834,52.92816 12.77313,7.14915 76.18037,36.59441 86.52512,40.18082 15.20539,5.27154 23.0313,6.48508 41.6,6.45075 22.82765,-0.0422 36.19099,-3.1042 56,-12.83151 12.89451,-6.3319 23.093,-13.50802 33.40875,-23.50789 2.5508,-2.47269 4.55284,-5.56229 4.55284,-5.56229 0,0 4.97962,-1.23391 8.9352,-1.60329 3.7103,-0.34647 5.42468,-0.53165 9.12923,-1.4693 1.81542,-0.61288 6.49728,-2.00523 8.37836,-2.97285 1.67236,-0.86026 4.51013,-2.60435 4.51013,-2.60435 0,0 -16.56092,23.2594 -25.30061,31.6146 -26.16044,25.00955 -57.83759,36.24944 -95.34723,37.9137 -5.57333,0.24729 -14.12175,0.075 -18.99648,-0.38294 z"
       id="path913"
       inkscape:connector-curvature="0"
       sodipodi:nodetypes="csscscssssscsssccscssccsscscsccccccccccsccssscscsscsssccsscccsccscsssssssscscscsccc" />
  </g>
</svg>
